HIERARCHY
ROOT hip
{
  OFFSET 0 0 0
  CHANNELS 6 Xposition Yposition Zposition Zrotation Yrotation Xrotation
  JOINT abdomen
  {
    OFFSET 0 20.6881 -0.73152
    CHANNELS 3 Zrotation Xrotation Yrotation
    JOINT chest
    {
      OFFSET 0 11.7043 -0.48768
      CHANNELS 3 Zrotation Xrotation Yrotation
      JOINT neck
      {
        OFFSET 0 22.1894 -2.19456
        CHANNELS 3 Zrotation Xrotation Yrotation
        JOINT head
        {
          OFFSET -0.24384 7.07133 1.2192
          CHANNELS 3 Zrotation Xrotation Yrotation
          JOINT leftEye
          {
            OFFSET 4.14528 8.04674 8.04672
            CHANNELS 3 Zrotation Xrotation Yrotation
            End Site
            {
              OFFSET 1 0 0
            }
          }
          JOINT rightEye
          {
            OFFSET -3.6576 8.04674 8.04672
            CHANNELS 3 Zrotation Xrotation Yrotation
            End Site
            {
              OFFSET 1 0 0
            }
          }
        }
      }
      JOINT rCollar
      {
        OFFSET -2.68224 19.2634 -4.8768
        CHANNELS 3 Zrotation Xrotation Yrotation
        JOINT rShldr
        {
          OFFSET -8.77824 -1.95073 1.46304
          CHANNELS 3 Zrotation Xrotation Yrotation
          JOINT rForeArm
          {
            OFFSET -28.1742 -1.7115 0.48768
            CHANNELS 3 Zrotation Xrotation Yrotation
            JOINT rHand
            {
              OFFSET -22.5879 0.773209 7.07136
              CHANNELS 3 Zrotation Xrotation Yrotation
              JOINT rThumb1
              {
                OFFSET -1.2192 -0.487915 3.41376
                CHANNELS 3 Zrotation Xrotation Yrotation
                JOINT rThumb2
                {
                  OFFSET -3.37035 -0.52449 3.41376
                  CHANNELS 3 Zrotation Xrotation Yrotation
                  End Site
                  {
                    OFFSET -1.78271 -1.18214 1.43049
                  }
                }
              }
              JOINT rIndex1
              {
                OFFSET -7.75947 0.938293 5.60832
                CHANNELS 3 Zrotation Xrotation Yrotation
                JOINT rIndex2
                {
                  OFFSET -2.54057 -0.884171 1.56538
                  CHANNELS 3 Zrotation Xrotation Yrotation
                  End Site
                  {
                    OFFSET -1.62519 -0.234802 1.16502
                  }
                }
              }
              JOINT rMid1
              {
                OFFSET -8.24714 1.18213 3.41376
                CHANNELS 3 Zrotation Xrotation Yrotation
                JOINT rMid2
                {
                  OFFSET -3.10165 -0.590103 1.0647
                  CHANNELS 3 Zrotation Xrotation Yrotation
                  End Site
                  {
                    OFFSET -2.48547 -0.328903 0.83742
                  }
                }
              }
              JOINT rRing1
              {
                OFFSET -8.82822 0.546677 1.51678
                CHANNELS 3 Zrotation Xrotation Yrotation
                JOINT rRing2
                {
                  OFFSET -2.60934 -0.819778 -0.0198488
                  CHANNELS 3 Zrotation Xrotation Yrotation
                  End Site
                  {
                    OFFSET -2.33842 -0.294052 0.168128
                  }
                }
              }
              JOINT rPinky1
              {
                OFFSET -8.27202 -0.0477905 -0.4584
                CHANNELS 3 Zrotation Xrotation Yrotation
                JOINT rPinky2
                {
                  OFFSET -1.82734 -0.647385 -0.700984
                  CHANNELS 3 Zrotation Xrotation Yrotation
                  End Site
                  {
                    OFFSET -1.69225 -0.51767 -0.607171
                  }
                }
              }
            }
          }
        }
      }
      JOINT lCollar
      {
        OFFSET 2.68224 19.2634 -4.8768
        CHANNELS 3 Zrotation Xrotation Yrotation
        JOINT lShldr
        {
          OFFSET 8.77824 -1.95073 1.46304
          CHANNELS 3 Zrotation Xrotation Yrotation
          JOINT lForeArm
          {
            OFFSET 28.1742 -1.7115 0.48768
            CHANNELS 3 Zrotation Xrotation Yrotation
            JOINT lHand
            {
              OFFSET 22.5879 0.773209 7.07136
              CHANNELS 3 Zrotation Xrotation Yrotation
              JOINT lThumb1
              {
                OFFSET 1.2192 -0.487915 3.41376
                CHANNELS 3 Zrotation Xrotation Yrotation
                JOINT lThumb2
                {
                  OFFSET 3.37035 -0.52449 3.41376
                  CHANNELS 3 Zrotation Xrotation Yrotation
                  End Site
                  {
                    OFFSET 1.78271 -1.18214 1.43049
                  }
                }
              }
              JOINT lIndex1
              {
                OFFSET 7.75947 0.938293 5.60832
                CHANNELS 3 Zrotation Xrotation Yrotation
                JOINT lIndex2
                {
                  OFFSET 2.54057 -0.884171 1.56538
                  CHANNELS 3 Zrotation Xrotation Yrotation
                  End Site
                  {
                    OFFSET 1.62519 -0.234802 1.16502
                  }
                }
              }
              JOINT lMid1
              {
                OFFSET 8.24714 1.18213 3.41376
                CHANNELS 3 Zrotation Xrotation Yrotation
                JOINT lMid2
                {
                  OFFSET 3.10165 -0.590103 1.0647
                  CHANNELS 3 Zrotation Xrotation Yrotation
                  End Site
                  {
                    OFFSET 2.48547 -0.328903 0.83742
                  }
                }
              }
              JOINT lRing1
              {
                OFFSET 8.82822 0.546677 1.51678
                CHANNELS 3 Zrotation Xrotation Yrotation
                JOINT lRing2
                {
                  OFFSET 2.60934 -0.819778 -0.0198488
                  CHANNELS 3 Zrotation Xrotation Yrotation
                  End Site
                  {
                    OFFSET 2.33842 -0.294052 0.168128
                  }
                }
              }
              JOINT lPinky1
              {
                OFFSET 8.27202 -0.0477905 -0.4584
                CHANNELS 3 Zrotation Xrotation Yrotation
                JOINT lPinky2
                {
                  OFFSET 1.82734 -0.647385 -0.700984
                  CHANNELS 3 Zrotation Xrotation Yrotation
                  End Site
                  {
                    OFFSET 1.69225 -0.51767 -0.607171
                  }
                }
              }
            }
          }
        }
      }
    }
  }
  JOINT rButtock
  {
    OFFSET -8.77824 4.35084 1.2192
    CHANNELS 3 Zrotation Xrotation Yrotation
    JOINT rThigh
    {
      OFFSET 0 -1.70687 -2.19456
      CHANNELS 3 Zrotation Xrotation Yrotation
      JOINT rShin
      {
        OFFSET 0 -36.8199 0.73152
        CHANNELS 3 Zrotation Xrotation Yrotation
        JOINT rFoot
        {
          OFFSET 0.73152 -45.1104 -5.12064
          CHANNELS 3 Zrotation Xrotation Yrotation
          End Site
          {
            OFFSET -1.1221 -3.69964 12.103
          }
        }
      }
    }
  }
  JOINT lButtock
  {
    OFFSET 8.77824 4.35084 1.2192
    CHANNELS 3 Zrotation Xrotation Yrotation
    JOINT lThigh
    {
      OFFSET 0 -1.70687 -2.19456
      CHANNELS 3 Zrotation Xrotation Yrotation
      JOINT lShin
      {
        OFFSET 0 -36.8199 0.73152
        CHANNELS 3 Zrotation Xrotation Yrotation
        JOINT lFoot
        {
          OFFSET -0.73152 -45.1104 -5.12064
          CHANNELS 3 Zrotation Xrotation Yrotation
          End Site
          {
            OFFSET 1.1221 -3.69964 12.103
          }
        }
      }
    }
  }
}
MOTION
Frames:	4
Frame Time:	0.00833333
-77.52 85.1919 13.8874 0.0 0.0 0.0 0.56901 -0.00295247 0.0162653 0.157041 -0.00456254 0.0272097 -4.77254e-15 7.95139e-16 6.21202e-18 -1.43684e-14 9.54166e-15 1.55301e-18 -0.0 0.0 0.0 -0.0 0.0 0.0 -2.33709e-15 5.82377e-18 9.93923e-17 -4.81486e-14 -2.48481e-17 7.95139e-16 -8.63421e-13 2.60408e-13 1.27222e-14 -9.87776e-12 -2.45648e-13 -3.18055e-15 -2.33018e-11 3.28871e-14 3.81667e-14 -4.02471e-11 6.04305e-14 5.24792e-14 -2.32992e-11 3.1408e-14 2.8625e-14 7.73091 5.47488 0.417314 -2.33014e-11 3.24019e-14 3.49861e-14 2.90554 0.965183 0.102902 -2.3297e-11 3.24019e-14 3.02153e-14 10.2786 0.731801 0.0259123 -2.33039e-11 3.4191e-14 3.18055e-14 2.22167 -0.733487 -0.20892 -2.4339e-15 6.21202e-18 -9.93923e-17 -5.16661e-14 2.67117e-16 -9.93923e-16 -8.6193e-13 -2.55041e-13 -3.18055e-15 -9.87747e-12 2.76186e-13 1.90833e-14 -2.32954e-11 4.67436e-14 2.22639e-14 -4.02213e-11 8.26944e-14 5.48646e-14 -2.33003e-11 4.57205e-14 3.49861e-14 -7.73091 5.47488 -0.417314 -2.32942e-11 4.6615e-14 2.54444e-14 -2.90554 0.965183 -0.102902 -2.33e-11 4.6615e-14 3.10104e-14 -10.2786 0.731801 -0.0259123 -2.32894e-11 5.04913e-14 2.8625e-14 -2.22167 -0.733487 0.20892 -2.03217e-16 0.0 -3.88251e-19 0.928533 -4.52917 -0.0776699 -0.00199903 2.65216 -0.00873501 -0.50078 1.87722 0.0953238 2.03217e-16 0.0 3.88251e-19 -0.0623893 -2.33914 0.0221494 0.00810076 -1.31476 0.069379 0.493074 3.65401 -0.13051
-82.7938 83.5376 8.31628 177.501 -86.8053 -176.855 2.19267 0.569262 0.188194 -0.427006 -2.49104 0.0379681 -2.74796 4.25655 -3.45399 1.8534 -5.89555 -6.60207 -0.0 0.0 0.0 -0.0 0.0 0.0 -1.21587e-15 -2.45145e-13 1.3814e-15 17.2723 -8.37897 -3.63243 -7.04573 -4.07306 9.9 0.0792002 -6.25378 -0.860159 -2.06217e-09 2.79118e-09 9.08234e-10 -3.57944e-09 4.93169e-09 1.53638e-09 -2.06217e-09 2.79118e-09 9.08225e-10 7.73091 5.47488 0.417314 -2.06217e-09 2.79118e-09 9.0823e-10 2.90554 0.965183 0.102902 -2.06216e-09 2.79118e-09 9.08229e-10 10.2786 0.731801 0.0259123 -2.06217e-09 2.79118e-09 9.08231e-10 2.22167 -0.733487 -0.20892 -1.3057e-15 -2.44841e-13 1.18261e-15 -5.49629 -7.49971 8.45938 27.4746 -24.9846 -13.5464 -0.00426381 -1.55018 0.217619 3.25892e-10 1.65214e-10 -5.64285e-10 5.6037e-10 2.87589e-10 -9.71397e-10 3.25888e-10 1.65215e-10 -5.64272e-10 -7.73091 5.47488 -0.417314 3.25894e-10 1.65215e-10 -5.64282e-10 -2.90554 0.965183 -0.102902 3.25888e-10 1.65216e-10 -5.64278e-10 -10.2786 0.731801 -0.0259123 3.25896e-10 1.65218e-10 -5.6428e-10 -2.22167 -0.733487 0.20892 -2.03217e-16 0.0 -3.88251e-19 0.0441524 -8.00558 0.926203 0.0094531 12.5504 0.150076 -0.763164 -3.83474 -1.53503 2.03217e-16 0.0 3.88251e-19 0.594386 -5.88438 0.467044 -0.00259212 9.1585 -0.0815918 0.383787 -1.82441 -0.846002
-82.7743 83.5535 8.33291 172.575 -87.6898 -172.095 3.91125 1.17242 0.384551 -1.03493 -5.12641 0.053984 -5.07566 8.67029 -7.14224 2.30294 -11.857 -13.7542 -0.0 0.0 0.0 -0.0 0.0 0.0 -7.61006e-18 -5.20476e-13 2.88859e-15 34.3408 -17.262 -7.8024 -12.9369 -7.92408 20.4655 -0.046273 -12.8872 -1.80802 -4.3149e-09 5.86792e-09 1.91384e-09 -7.48989e-09 1.03682e-08 3.23757e-09 -4.3149e-09 5.86792e-09 1.91383e-09 7.73091 5.47488 0.417314 -4.31491e-09 5.86792e-09 1.91384e-09 2.90554 0.965183 0.102902 -4.3149e-09 5.86792e-09 1.91384e-09 10.2786 0.731801 0.0259123 -4.31491e-09 5.86792e-09 1.91384e-09 2.22167 -0.733487 -0.20892 -9.01996e-17 -5.19669e-13 2.68981e-15 -8.7114 -14.8561 17.8185 39.3421 -46.1052 -37.8414 0.00458015 -3.25253 0.45718 7.13665e-10 3.52863e-10 -1.2008e-09 1.22735e-09 6.14173e-10 -2.06728e-09 7.13662e-10 3.52866e-10 -1.20078e-09 -7.73091 5.47488 -0.417314 7.13667e-10 3.52866e-10 -1.20079e-09 -2.90554 0.965183 -0.102902 7.13661e-10 3.52867e-10 -1.20079e-09 -10.2786 0.731801 -0.0259123 7.13667e-10 3.52867e-10 -1.20079e-09 -2.22167 -0.733487 0.20892 -2.03217e-16 0.0 -3.88251e-19 -0.75363 -11.6856 2.03748 -0.0429073 23.0157 0.337371 -1.39746 -9.85903 -3.29715 2.03217e-16 0.0 3.88251e-19 1.34559 -9.62891 0.958113 0.0490852 20.2281 -0.254833 0.121582 -7.6237 -1.60129
-82.6987 83.5665 8.31951 165.974 -88.4384 -165.634 5.42968 1.71363 0.532261 -1.59227 -7.46398 0.0598847 -6.68157 12.5819 -10.5905 1.42478 -16.73 -20.6104 -0.0 0.0 0.0 -0.0 0.0 0.0 1.02656e-15 -7.35446e-13 3.94541e-15 48.3797 -24.7121 -11.8828 -17.0636 -10.7611 30.2092 -0.352335 -18.7439 -2.70889 -6.1399e-09 8.37348e-09 2.72463e-09 -1.06578e-08 1.47949e-08 4.60903e-09 -6.1399e-09 8.37348e-09 2.72462e-09 7.73091 5.47488 0.417314 -6.13991e-09 8.37348e-09 2.72462e-09 2.90554 0.965183 0.102902 -6.1399e-09 8.37348e-09 2.72463e-09 10.2786 0.731801 0.0259123 -6.13991e-09 8.37348e-09 2.72463e-09 2.22167 -0.733487 -0.20892 9.50692e-16 -7.34535e-13 3.74662e-15 -9.71991 -20.4831 26.9898 31.2091 -51.2538 -73.0428 0.0226342 -4.65027 0.654775 1.02427e-09 4.95548e-10 -1.6929e-09 1.76155e-09 8.62602e-10 -2.9143e-09 1.02427e-09 4.95553e-10 -1.69289e-09 -7.73091 5.47488 -0.417314 1.02427e-09 4.95552e-10 -1.6929e-09 -2.90554 0.965183 -0.102902 1.02426e-09 4.95554e-10 -1.69289e-09 -10.2786 0.731801 -0.0259123 1.02427e-09 4.95552e-10 -1.6929e-09 -2.22167 -0.733487 0.20892 -2.03217e-16 0.0 -3.88251e-19 -1.3476 -14.9418 3.00818 -0.158374 32.3459 0.540845 -2.29015 -15.2083 -4.95942 2.03217e-16 0.0 3.88251e-19 2.07701 -12.9718 1.38483 0.160785 30.1043 -0.439685 -0.253584 -12.7716 -2.33401
